<mxfile host="app.diagrams.net" agent="Mozilla/5.0 (Windows NT 10.0; Win64; x64; rv:132.0) Gecko/20100101 Firefox/132.0" version="24.8.3">
  <diagram name="Page-1" id="ZLIr2dGa3FI1vkI3QF5f">
    <mxGraphModel dx="2607" dy="1318" grid="1" gridSize="10" guides="1" tooltips="1" connect="1" arrows="1" fold="1" page="1" pageScale="1" pageWidth="1400" pageHeight="850" math="0" shadow="0">
      <root>
        <mxCell id="0" />
        <mxCell id="1" parent="0" />
        <mxCell id="7lzFp0Yg2v_CefDAZ_hL-3" value="" style="edgeStyle=orthogonalEdgeStyle;rounded=0;orthogonalLoop=1;jettySize=auto;html=1;curved=0;" edge="1" parent="1" source="7lzFp0Yg2v_CefDAZ_hL-1" target="7lzFp0Yg2v_CefDAZ_hL-2">
          <mxGeometry relative="1" as="geometry" />
        </mxCell>
        <mxCell id="7lzFp0Yg2v_CefDAZ_hL-1" value="" style="html=1;points=[[0,0,0,0,5],[0,1,0,0,-5],[1,0,0,0,5],[1,1,0,0,-5]];perimeter=orthogonalPerimeter;outlineConnect=0;targetShapes=umlLifeline;portConstraint=eastwest;newEdgeStyle={&quot;curved&quot;:0,&quot;rounded&quot;:0};fillColor=#050505;" vertex="1" parent="1">
          <mxGeometry x="365" y="410" width="10" height="80" as="geometry" />
        </mxCell>
        <mxCell id="7lzFp0Yg2v_CefDAZ_hL-5" value="" style="edgeStyle=orthogonalEdgeStyle;rounded=0;orthogonalLoop=1;jettySize=auto;html=1;" edge="1" parent="1" source="7lzFp0Yg2v_CefDAZ_hL-2" target="7lzFp0Yg2v_CefDAZ_hL-4">
          <mxGeometry relative="1" as="geometry" />
        </mxCell>
        <mxCell id="7lzFp0Yg2v_CefDAZ_hL-2" value="" style="ellipse;whiteSpace=wrap;html=1;aspect=fixed;" vertex="1" parent="1">
          <mxGeometry x="455" y="410" width="80" height="80" as="geometry" />
        </mxCell>
        <mxCell id="7lzFp0Yg2v_CefDAZ_hL-9" value="" style="edgeStyle=orthogonalEdgeStyle;rounded=0;orthogonalLoop=1;jettySize=auto;html=1;curved=0;" edge="1" parent="1" source="7lzFp0Yg2v_CefDAZ_hL-4" target="7lzFp0Yg2v_CefDAZ_hL-6">
          <mxGeometry relative="1" as="geometry" />
        </mxCell>
        <mxCell id="7lzFp0Yg2v_CefDAZ_hL-4" value="" style="html=1;points=[[0,0,0,0,5],[0,1,0,0,-5],[1,0,0,0,5],[1,1,0,0,-5]];perimeter=orthogonalPerimeter;outlineConnect=0;targetShapes=umlLifeline;portConstraint=eastwest;newEdgeStyle={&quot;curved&quot;:0,&quot;rounded&quot;:0};fillColor=#050505;" vertex="1" parent="1">
          <mxGeometry x="615" y="410" width="10" height="80" as="geometry" />
        </mxCell>
        <mxCell id="7lzFp0Yg2v_CefDAZ_hL-109" style="edgeStyle=orthogonalEdgeStyle;rounded=0;orthogonalLoop=1;jettySize=auto;html=1;" edge="1" parent="1" source="7lzFp0Yg2v_CefDAZ_hL-6" target="7lzFp0Yg2v_CefDAZ_hL-45">
          <mxGeometry relative="1" as="geometry" />
        </mxCell>
        <mxCell id="7lzFp0Yg2v_CefDAZ_hL-110" style="edgeStyle=orthogonalEdgeStyle;rounded=0;orthogonalLoop=1;jettySize=auto;html=1;" edge="1" parent="1" source="7lzFp0Yg2v_CefDAZ_hL-6" target="7lzFp0Yg2v_CefDAZ_hL-11">
          <mxGeometry relative="1" as="geometry" />
        </mxCell>
        <mxCell id="7lzFp0Yg2v_CefDAZ_hL-6" value="" style="ellipse;whiteSpace=wrap;html=1;aspect=fixed;" vertex="1" parent="1">
          <mxGeometry x="685" y="410" width="80" height="80" as="geometry" />
        </mxCell>
        <mxCell id="7lzFp0Yg2v_CefDAZ_hL-10" value="" style="edgeStyle=orthogonalEdgeStyle;rounded=0;orthogonalLoop=1;jettySize=auto;html=1;curved=0;" edge="1" parent="1" source="7lzFp0Yg2v_CefDAZ_hL-11" target="7lzFp0Yg2v_CefDAZ_hL-12">
          <mxGeometry relative="1" as="geometry" />
        </mxCell>
        <mxCell id="7lzFp0Yg2v_CefDAZ_hL-11" value="" style="html=1;points=[[0,0,0,0,5],[0,1,0,0,-5],[1,0,0,0,5],[1,1,0,0,-5]];perimeter=orthogonalPerimeter;outlineConnect=0;targetShapes=umlLifeline;portConstraint=eastwest;newEdgeStyle={&quot;curved&quot;:0,&quot;rounded&quot;:0};fillColor=#050505;" vertex="1" parent="1">
          <mxGeometry x="855" y="225" width="10" height="80" as="geometry" />
        </mxCell>
        <mxCell id="7lzFp0Yg2v_CefDAZ_hL-20" value="" style="edgeStyle=orthogonalEdgeStyle;rounded=0;orthogonalLoop=1;jettySize=auto;html=1;" edge="1" parent="1" source="7lzFp0Yg2v_CefDAZ_hL-12" target="7lzFp0Yg2v_CefDAZ_hL-19">
          <mxGeometry relative="1" as="geometry" />
        </mxCell>
        <mxCell id="7lzFp0Yg2v_CefDAZ_hL-12" value="" style="ellipse;whiteSpace=wrap;html=1;aspect=fixed;" vertex="1" parent="1">
          <mxGeometry x="925" y="225" width="80" height="80" as="geometry" />
        </mxCell>
        <mxCell id="7lzFp0Yg2v_CefDAZ_hL-23" style="edgeStyle=orthogonalEdgeStyle;rounded=0;orthogonalLoop=1;jettySize=auto;html=1;curved=0;entryX=1;entryY=0.5;entryDx=0;entryDy=0;" edge="1" parent="1" source="7lzFp0Yg2v_CefDAZ_hL-19" target="7lzFp0Yg2v_CefDAZ_hL-21">
          <mxGeometry relative="1" as="geometry">
            <Array as="points">
              <mxPoint x="1105" y="235" />
              <mxPoint x="1105" y="125" />
            </Array>
          </mxGeometry>
        </mxCell>
        <mxCell id="7lzFp0Yg2v_CefDAZ_hL-26" value="" style="edgeStyle=orthogonalEdgeStyle;rounded=0;orthogonalLoop=1;jettySize=auto;html=1;curved=0;" edge="1" parent="1" source="7lzFp0Yg2v_CefDAZ_hL-19" target="7lzFp0Yg2v_CefDAZ_hL-25">
          <mxGeometry relative="1" as="geometry" />
        </mxCell>
        <mxCell id="7lzFp0Yg2v_CefDAZ_hL-19" value="" style="html=1;points=[[0,0,0,0,5],[0,1,0,0,-5],[1,0,0,0,5],[1,1,0,0,-5]];perimeter=orthogonalPerimeter;outlineConnect=0;targetShapes=umlLifeline;portConstraint=eastwest;newEdgeStyle={&quot;curved&quot;:0,&quot;rounded&quot;:0};fillColor=#050505;" vertex="1" parent="1">
          <mxGeometry x="1065" y="225" width="10" height="80" as="geometry" />
        </mxCell>
        <mxCell id="7lzFp0Yg2v_CefDAZ_hL-21" value="" style="ellipse;whiteSpace=wrap;html=1;aspect=fixed;" vertex="1" parent="1">
          <mxGeometry x="925" y="85" width="80" height="80" as="geometry" />
        </mxCell>
        <mxCell id="7lzFp0Yg2v_CefDAZ_hL-22" value="" style="ellipse;whiteSpace=wrap;html=1;aspect=fixed;fillColor=#000000;" vertex="1" parent="1">
          <mxGeometry x="950" y="110" width="30" height="30" as="geometry" />
        </mxCell>
        <mxCell id="7lzFp0Yg2v_CefDAZ_hL-24" style="edgeStyle=orthogonalEdgeStyle;rounded=0;orthogonalLoop=1;jettySize=auto;html=1;entryX=0;entryY=0;entryDx=0;entryDy=5;entryPerimeter=0;" edge="1" parent="1" source="7lzFp0Yg2v_CefDAZ_hL-21" target="7lzFp0Yg2v_CefDAZ_hL-11">
          <mxGeometry relative="1" as="geometry">
            <Array as="points">
              <mxPoint x="835" y="125" />
              <mxPoint x="835" y="230" />
            </Array>
          </mxGeometry>
        </mxCell>
        <mxCell id="7lzFp0Yg2v_CefDAZ_hL-28" value="" style="edgeStyle=orthogonalEdgeStyle;rounded=0;orthogonalLoop=1;jettySize=auto;html=1;" edge="1" parent="1" source="7lzFp0Yg2v_CefDAZ_hL-25" target="7lzFp0Yg2v_CefDAZ_hL-27">
          <mxGeometry relative="1" as="geometry" />
        </mxCell>
        <mxCell id="7lzFp0Yg2v_CefDAZ_hL-25" value="" style="ellipse;whiteSpace=wrap;html=1;aspect=fixed;" vertex="1" parent="1">
          <mxGeometry x="1155" y="225" width="80" height="80" as="geometry" />
        </mxCell>
        <mxCell id="7lzFp0Yg2v_CefDAZ_hL-30" value="" style="edgeStyle=orthogonalEdgeStyle;rounded=0;orthogonalLoop=1;jettySize=auto;html=1;curved=0;" edge="1" parent="1" source="7lzFp0Yg2v_CefDAZ_hL-27" target="7lzFp0Yg2v_CefDAZ_hL-29">
          <mxGeometry relative="1" as="geometry" />
        </mxCell>
        <mxCell id="7lzFp0Yg2v_CefDAZ_hL-27" value="" style="html=1;points=[[0,0,0,0,5],[0,1,0,0,-5],[1,0,0,0,5],[1,1,0,0,-5]];perimeter=orthogonalPerimeter;outlineConnect=0;targetShapes=umlLifeline;portConstraint=eastwest;newEdgeStyle={&quot;curved&quot;:0,&quot;rounded&quot;:0};fillColor=#050505;" vertex="1" parent="1">
          <mxGeometry x="1305" y="225" width="10" height="80" as="geometry" />
        </mxCell>
        <mxCell id="7lzFp0Yg2v_CefDAZ_hL-32" value="" style="edgeStyle=orthogonalEdgeStyle;rounded=0;orthogonalLoop=1;jettySize=auto;html=1;" edge="1" parent="1" source="7lzFp0Yg2v_CefDAZ_hL-29" target="7lzFp0Yg2v_CefDAZ_hL-31">
          <mxGeometry relative="1" as="geometry" />
        </mxCell>
        <mxCell id="7lzFp0Yg2v_CefDAZ_hL-29" value="" style="ellipse;whiteSpace=wrap;html=1;aspect=fixed;" vertex="1" parent="1">
          <mxGeometry x="1395" y="225" width="80" height="80" as="geometry" />
        </mxCell>
        <mxCell id="7lzFp0Yg2v_CefDAZ_hL-36" style="edgeStyle=orthogonalEdgeStyle;rounded=0;orthogonalLoop=1;jettySize=auto;html=1;curved=0;entryX=1;entryY=0.5;entryDx=0;entryDy=0;" edge="1" parent="1" source="7lzFp0Yg2v_CefDAZ_hL-31" target="7lzFp0Yg2v_CefDAZ_hL-34">
          <mxGeometry relative="1" as="geometry">
            <Array as="points">
              <mxPoint x="1605" y="235" />
              <mxPoint x="1605" y="135" />
            </Array>
          </mxGeometry>
        </mxCell>
        <mxCell id="7lzFp0Yg2v_CefDAZ_hL-43" value="" style="edgeStyle=orthogonalEdgeStyle;rounded=0;orthogonalLoop=1;jettySize=auto;html=1;curved=0;entryX=0.5;entryY=0;entryDx=0;entryDy=0;" edge="1" parent="1" source="7lzFp0Yg2v_CefDAZ_hL-31" target="7lzFp0Yg2v_CefDAZ_hL-68">
          <mxGeometry relative="1" as="geometry">
            <mxPoint x="1645" y="265" as="targetPoint" />
          </mxGeometry>
        </mxCell>
        <mxCell id="7lzFp0Yg2v_CefDAZ_hL-31" value="" style="html=1;points=[[0,0,0,0,5],[0,1,0,0,-5],[1,0,0,0,5],[1,1,0,0,-5]];perimeter=orthogonalPerimeter;outlineConnect=0;targetShapes=umlLifeline;portConstraint=eastwest;newEdgeStyle={&quot;curved&quot;:0,&quot;rounded&quot;:0};fillColor=#050505;" vertex="1" parent="1">
          <mxGeometry x="1555" y="225" width="10" height="80" as="geometry" />
        </mxCell>
        <mxCell id="7lzFp0Yg2v_CefDAZ_hL-34" value="" style="ellipse;whiteSpace=wrap;html=1;aspect=fixed;" vertex="1" parent="1">
          <mxGeometry x="1395" y="95" width="80" height="80" as="geometry" />
        </mxCell>
        <mxCell id="7lzFp0Yg2v_CefDAZ_hL-35" style="edgeStyle=orthogonalEdgeStyle;rounded=0;orthogonalLoop=1;jettySize=auto;html=1;entryX=0;entryY=0;entryDx=0;entryDy=5;entryPerimeter=0;" edge="1" parent="1" source="7lzFp0Yg2v_CefDAZ_hL-34" target="7lzFp0Yg2v_CefDAZ_hL-27">
          <mxGeometry relative="1" as="geometry">
            <Array as="points">
              <mxPoint x="1285" y="135" />
              <mxPoint x="1285" y="230" />
            </Array>
          </mxGeometry>
        </mxCell>
        <mxCell id="7lzFp0Yg2v_CefDAZ_hL-39" value="" style="ellipse;whiteSpace=wrap;html=1;aspect=fixed;fillColor=#000000;" vertex="1" parent="1">
          <mxGeometry x="1405" y="110" width="25" height="25" as="geometry" />
        </mxCell>
        <mxCell id="7lzFp0Yg2v_CefDAZ_hL-40" value="" style="ellipse;whiteSpace=wrap;html=1;aspect=fixed;fillColor=#000000;" vertex="1" parent="1">
          <mxGeometry x="1445" y="112.5" width="25" height="25" as="geometry" />
        </mxCell>
        <mxCell id="7lzFp0Yg2v_CefDAZ_hL-41" value="" style="ellipse;whiteSpace=wrap;html=1;aspect=fixed;fillColor=#000000;" vertex="1" parent="1">
          <mxGeometry x="1422.5" y="140" width="25" height="25" as="geometry" />
        </mxCell>
        <mxCell id="7lzFp0Yg2v_CefDAZ_hL-44" value="" style="edgeStyle=orthogonalEdgeStyle;rounded=0;orthogonalLoop=1;jettySize=auto;html=1;curved=0;" edge="1" parent="1" source="7lzFp0Yg2v_CefDAZ_hL-45" target="7lzFp0Yg2v_CefDAZ_hL-47">
          <mxGeometry relative="1" as="geometry" />
        </mxCell>
        <mxCell id="7lzFp0Yg2v_CefDAZ_hL-45" value="" style="html=1;points=[[0,0,0,0,5],[0,1,0,0,-5],[1,0,0,0,5],[1,1,0,0,-5]];perimeter=orthogonalPerimeter;outlineConnect=0;targetShapes=umlLifeline;portConstraint=eastwest;newEdgeStyle={&quot;curved&quot;:0,&quot;rounded&quot;:0};fillColor=#050505;" vertex="1" parent="1">
          <mxGeometry x="855" y="655" width="10" height="80" as="geometry" />
        </mxCell>
        <mxCell id="7lzFp0Yg2v_CefDAZ_hL-46" value="" style="edgeStyle=orthogonalEdgeStyle;rounded=0;orthogonalLoop=1;jettySize=auto;html=1;" edge="1" parent="1" source="7lzFp0Yg2v_CefDAZ_hL-47" target="7lzFp0Yg2v_CefDAZ_hL-50">
          <mxGeometry relative="1" as="geometry" />
        </mxCell>
        <mxCell id="7lzFp0Yg2v_CefDAZ_hL-47" value="" style="ellipse;whiteSpace=wrap;html=1;aspect=fixed;" vertex="1" parent="1">
          <mxGeometry x="925" y="655" width="80" height="80" as="geometry" />
        </mxCell>
        <mxCell id="7lzFp0Yg2v_CefDAZ_hL-48" style="edgeStyle=orthogonalEdgeStyle;rounded=0;orthogonalLoop=1;jettySize=auto;html=1;curved=0;entryX=1;entryY=0.5;entryDx=0;entryDy=0;" edge="1" parent="1" source="7lzFp0Yg2v_CefDAZ_hL-50" target="7lzFp0Yg2v_CefDAZ_hL-51">
          <mxGeometry relative="1" as="geometry">
            <Array as="points">
              <mxPoint x="1105" y="665" />
              <mxPoint x="1105" y="555" />
            </Array>
          </mxGeometry>
        </mxCell>
        <mxCell id="7lzFp0Yg2v_CefDAZ_hL-49" value="" style="edgeStyle=orthogonalEdgeStyle;rounded=0;orthogonalLoop=1;jettySize=auto;html=1;curved=0;" edge="1" parent="1" source="7lzFp0Yg2v_CefDAZ_hL-50" target="7lzFp0Yg2v_CefDAZ_hL-55">
          <mxGeometry relative="1" as="geometry" />
        </mxCell>
        <mxCell id="7lzFp0Yg2v_CefDAZ_hL-50" value="" style="html=1;points=[[0,0,0,0,5],[0,1,0,0,-5],[1,0,0,0,5],[1,1,0,0,-5]];perimeter=orthogonalPerimeter;outlineConnect=0;targetShapes=umlLifeline;portConstraint=eastwest;newEdgeStyle={&quot;curved&quot;:0,&quot;rounded&quot;:0};fillColor=#050505;" vertex="1" parent="1">
          <mxGeometry x="1065" y="655" width="10" height="80" as="geometry" />
        </mxCell>
        <mxCell id="7lzFp0Yg2v_CefDAZ_hL-51" value="" style="ellipse;whiteSpace=wrap;html=1;aspect=fixed;" vertex="1" parent="1">
          <mxGeometry x="925" y="515" width="80" height="80" as="geometry" />
        </mxCell>
        <mxCell id="7lzFp0Yg2v_CefDAZ_hL-52" value="" style="ellipse;whiteSpace=wrap;html=1;aspect=fixed;fillColor=#000000;" vertex="1" parent="1">
          <mxGeometry x="950" y="540" width="30" height="30" as="geometry" />
        </mxCell>
        <mxCell id="7lzFp0Yg2v_CefDAZ_hL-53" style="edgeStyle=orthogonalEdgeStyle;rounded=0;orthogonalLoop=1;jettySize=auto;html=1;entryX=0;entryY=0;entryDx=0;entryDy=5;entryPerimeter=0;" edge="1" parent="1" source="7lzFp0Yg2v_CefDAZ_hL-51" target="7lzFp0Yg2v_CefDAZ_hL-45">
          <mxGeometry relative="1" as="geometry">
            <Array as="points">
              <mxPoint x="835" y="555" />
              <mxPoint x="835" y="660" />
            </Array>
          </mxGeometry>
        </mxCell>
        <mxCell id="7lzFp0Yg2v_CefDAZ_hL-54" value="" style="edgeStyle=orthogonalEdgeStyle;rounded=0;orthogonalLoop=1;jettySize=auto;html=1;" edge="1" parent="1" source="7lzFp0Yg2v_CefDAZ_hL-55" target="7lzFp0Yg2v_CefDAZ_hL-57">
          <mxGeometry relative="1" as="geometry" />
        </mxCell>
        <mxCell id="7lzFp0Yg2v_CefDAZ_hL-55" value="" style="ellipse;whiteSpace=wrap;html=1;aspect=fixed;" vertex="1" parent="1">
          <mxGeometry x="1155" y="655" width="80" height="80" as="geometry" />
        </mxCell>
        <mxCell id="7lzFp0Yg2v_CefDAZ_hL-56" value="" style="edgeStyle=orthogonalEdgeStyle;rounded=0;orthogonalLoop=1;jettySize=auto;html=1;curved=0;" edge="1" parent="1" source="7lzFp0Yg2v_CefDAZ_hL-57" target="7lzFp0Yg2v_CefDAZ_hL-59">
          <mxGeometry relative="1" as="geometry" />
        </mxCell>
        <mxCell id="7lzFp0Yg2v_CefDAZ_hL-57" value="" style="html=1;points=[[0,0,0,0,5],[0,1,0,0,-5],[1,0,0,0,5],[1,1,0,0,-5]];perimeter=orthogonalPerimeter;outlineConnect=0;targetShapes=umlLifeline;portConstraint=eastwest;newEdgeStyle={&quot;curved&quot;:0,&quot;rounded&quot;:0};fillColor=#050505;" vertex="1" parent="1">
          <mxGeometry x="1305" y="655" width="10" height="80" as="geometry" />
        </mxCell>
        <mxCell id="7lzFp0Yg2v_CefDAZ_hL-58" value="" style="edgeStyle=orthogonalEdgeStyle;rounded=0;orthogonalLoop=1;jettySize=auto;html=1;" edge="1" parent="1" source="7lzFp0Yg2v_CefDAZ_hL-59" target="7lzFp0Yg2v_CefDAZ_hL-62">
          <mxGeometry relative="1" as="geometry" />
        </mxCell>
        <mxCell id="7lzFp0Yg2v_CefDAZ_hL-59" value="" style="ellipse;whiteSpace=wrap;html=1;aspect=fixed;" vertex="1" parent="1">
          <mxGeometry x="1395" y="655" width="80" height="80" as="geometry" />
        </mxCell>
        <mxCell id="7lzFp0Yg2v_CefDAZ_hL-60" style="edgeStyle=orthogonalEdgeStyle;rounded=0;orthogonalLoop=1;jettySize=auto;html=1;curved=0;entryX=1;entryY=0.5;entryDx=0;entryDy=0;" edge="1" parent="1" source="7lzFp0Yg2v_CefDAZ_hL-62" target="7lzFp0Yg2v_CefDAZ_hL-63">
          <mxGeometry relative="1" as="geometry">
            <Array as="points">
              <mxPoint x="1605" y="665" />
              <mxPoint x="1605" y="565" />
            </Array>
          </mxGeometry>
        </mxCell>
        <mxCell id="7lzFp0Yg2v_CefDAZ_hL-61" value="" style="edgeStyle=orthogonalEdgeStyle;rounded=0;orthogonalLoop=1;jettySize=auto;html=1;curved=0;" edge="1" parent="1" source="7lzFp0Yg2v_CefDAZ_hL-62" target="7lzFp0Yg2v_CefDAZ_hL-68">
          <mxGeometry relative="1" as="geometry" />
        </mxCell>
        <mxCell id="7lzFp0Yg2v_CefDAZ_hL-62" value="" style="html=1;points=[[0,0,0,0,5],[0,1,0,0,-5],[1,0,0,0,5],[1,1,0,0,-5]];perimeter=orthogonalPerimeter;outlineConnect=0;targetShapes=umlLifeline;portConstraint=eastwest;newEdgeStyle={&quot;curved&quot;:0,&quot;rounded&quot;:0};fillColor=#050505;" vertex="1" parent="1">
          <mxGeometry x="1555" y="655" width="10" height="80" as="geometry" />
        </mxCell>
        <mxCell id="7lzFp0Yg2v_CefDAZ_hL-63" value="" style="ellipse;whiteSpace=wrap;html=1;aspect=fixed;" vertex="1" parent="1">
          <mxGeometry x="1395" y="525" width="80" height="80" as="geometry" />
        </mxCell>
        <mxCell id="7lzFp0Yg2v_CefDAZ_hL-64" style="edgeStyle=orthogonalEdgeStyle;rounded=0;orthogonalLoop=1;jettySize=auto;html=1;entryX=0;entryY=0;entryDx=0;entryDy=5;entryPerimeter=0;" edge="1" parent="1" source="7lzFp0Yg2v_CefDAZ_hL-63" target="7lzFp0Yg2v_CefDAZ_hL-57">
          <mxGeometry relative="1" as="geometry">
            <Array as="points">
              <mxPoint x="1285" y="565" />
              <mxPoint x="1285" y="660" />
            </Array>
          </mxGeometry>
        </mxCell>
        <mxCell id="7lzFp0Yg2v_CefDAZ_hL-65" value="" style="ellipse;whiteSpace=wrap;html=1;aspect=fixed;fillColor=#000000;" vertex="1" parent="1">
          <mxGeometry x="1405" y="540" width="25" height="25" as="geometry" />
        </mxCell>
        <mxCell id="7lzFp0Yg2v_CefDAZ_hL-66" value="" style="ellipse;whiteSpace=wrap;html=1;aspect=fixed;fillColor=#000000;" vertex="1" parent="1">
          <mxGeometry x="1445" y="542.5" width="25" height="25" as="geometry" />
        </mxCell>
        <mxCell id="7lzFp0Yg2v_CefDAZ_hL-67" value="" style="ellipse;whiteSpace=wrap;html=1;aspect=fixed;fillColor=#000000;" vertex="1" parent="1">
          <mxGeometry x="1422.5" y="570" width="25" height="25" as="geometry" />
        </mxCell>
        <mxCell id="7lzFp0Yg2v_CefDAZ_hL-71" value="" style="edgeStyle=orthogonalEdgeStyle;rounded=0;orthogonalLoop=1;jettySize=auto;html=1;" edge="1" parent="1" source="7lzFp0Yg2v_CefDAZ_hL-68" target="7lzFp0Yg2v_CefDAZ_hL-69">
          <mxGeometry relative="1" as="geometry" />
        </mxCell>
        <mxCell id="7lzFp0Yg2v_CefDAZ_hL-68" value="" style="ellipse;whiteSpace=wrap;html=1;aspect=fixed;" vertex="1" parent="1">
          <mxGeometry x="1795" y="435" width="80" height="80" as="geometry" />
        </mxCell>
        <mxCell id="7lzFp0Yg2v_CefDAZ_hL-88" value="" style="edgeStyle=orthogonalEdgeStyle;rounded=0;orthogonalLoop=1;jettySize=auto;html=1;curved=0;" edge="1" parent="1" source="7lzFp0Yg2v_CefDAZ_hL-69" target="7lzFp0Yg2v_CefDAZ_hL-86">
          <mxGeometry relative="1" as="geometry" />
        </mxCell>
        <mxCell id="7lzFp0Yg2v_CefDAZ_hL-69" value="" style="html=1;points=[[0,0,0,0,5],[0,1,0,0,-5],[1,0,0,0,5],[1,1,0,0,-5]];perimeter=orthogonalPerimeter;outlineConnect=0;targetShapes=umlLifeline;portConstraint=eastwest;newEdgeStyle={&quot;curved&quot;:0,&quot;rounded&quot;:0};fillColor=#050505;" vertex="1" parent="1">
          <mxGeometry x="1965" y="435" width="10" height="80" as="geometry" />
        </mxCell>
        <mxCell id="7lzFp0Yg2v_CefDAZ_hL-80" value="" style="ellipse;whiteSpace=wrap;html=1;aspect=fixed;" vertex="1" parent="1">
          <mxGeometry x="2055" y="325" width="80" height="80" as="geometry" />
        </mxCell>
        <mxCell id="7lzFp0Yg2v_CefDAZ_hL-81" style="edgeStyle=orthogonalEdgeStyle;rounded=0;orthogonalLoop=1;jettySize=auto;html=1;entryX=0;entryY=0;entryDx=0;entryDy=5;entryPerimeter=0;" edge="1" parent="1" source="7lzFp0Yg2v_CefDAZ_hL-80">
          <mxGeometry relative="1" as="geometry">
            <mxPoint x="1965" y="460" as="targetPoint" />
            <Array as="points">
              <mxPoint x="1945" y="365" />
              <mxPoint x="1945" y="460" />
            </Array>
          </mxGeometry>
        </mxCell>
        <mxCell id="7lzFp0Yg2v_CefDAZ_hL-83" value="" style="ellipse;whiteSpace=wrap;html=1;aspect=fixed;fillColor=#000000;" vertex="1" parent="1">
          <mxGeometry x="2065" y="335" width="20" height="20" as="geometry" />
        </mxCell>
        <mxCell id="7lzFp0Yg2v_CefDAZ_hL-89" value="" style="edgeStyle=orthogonalEdgeStyle;rounded=0;orthogonalLoop=1;jettySize=auto;html=1;" edge="1" parent="1" source="7lzFp0Yg2v_CefDAZ_hL-86" target="7lzFp0Yg2v_CefDAZ_hL-85">
          <mxGeometry relative="1" as="geometry" />
        </mxCell>
        <mxCell id="7lzFp0Yg2v_CefDAZ_hL-86" value="" style="ellipse;whiteSpace=wrap;html=1;aspect=fixed;" vertex="1" parent="1">
          <mxGeometry x="2065" y="435" width="80" height="80" as="geometry" />
        </mxCell>
        <mxCell id="7lzFp0Yg2v_CefDAZ_hL-90" style="edgeStyle=orthogonalEdgeStyle;rounded=0;orthogonalLoop=1;jettySize=auto;html=1;curved=0;entryX=1;entryY=0.5;entryDx=0;entryDy=0;" edge="1" parent="1" source="7lzFp0Yg2v_CefDAZ_hL-85" target="7lzFp0Yg2v_CefDAZ_hL-80">
          <mxGeometry relative="1" as="geometry">
            <Array as="points">
              <mxPoint x="2265" y="445" />
              <mxPoint x="2265" y="365" />
            </Array>
          </mxGeometry>
        </mxCell>
        <mxCell id="7lzFp0Yg2v_CefDAZ_hL-92" value="" style="edgeStyle=orthogonalEdgeStyle;rounded=0;orthogonalLoop=1;jettySize=auto;html=1;curved=0;" edge="1" parent="1" source="7lzFp0Yg2v_CefDAZ_hL-85" target="7lzFp0Yg2v_CefDAZ_hL-91">
          <mxGeometry relative="1" as="geometry" />
        </mxCell>
        <mxCell id="7lzFp0Yg2v_CefDAZ_hL-85" value="" style="html=1;points=[[0,0,0,0,5],[0,1,0,0,-5],[1,0,0,0,5],[1,1,0,0,-5]];perimeter=orthogonalPerimeter;outlineConnect=0;targetShapes=umlLifeline;portConstraint=eastwest;newEdgeStyle={&quot;curved&quot;:0,&quot;rounded&quot;:0};fillColor=#050505;" vertex="1" parent="1">
          <mxGeometry x="2225" y="435" width="10" height="80" as="geometry" />
        </mxCell>
        <mxCell id="7lzFp0Yg2v_CefDAZ_hL-94" value="" style="edgeStyle=orthogonalEdgeStyle;rounded=0;orthogonalLoop=1;jettySize=auto;html=1;" edge="1" parent="1" source="7lzFp0Yg2v_CefDAZ_hL-91" target="7lzFp0Yg2v_CefDAZ_hL-93">
          <mxGeometry relative="1" as="geometry" />
        </mxCell>
        <mxCell id="7lzFp0Yg2v_CefDAZ_hL-91" value="" style="ellipse;whiteSpace=wrap;html=1;aspect=fixed;" vertex="1" parent="1">
          <mxGeometry x="2315" y="435" width="80" height="80" as="geometry" />
        </mxCell>
        <mxCell id="7lzFp0Yg2v_CefDAZ_hL-93" value="" style="html=1;points=[[0,0,0,0,5],[0,1,0,0,-5],[1,0,0,0,5],[1,1,0,0,-5]];perimeter=orthogonalPerimeter;outlineConnect=0;targetShapes=umlLifeline;portConstraint=eastwest;newEdgeStyle={&quot;curved&quot;:0,&quot;rounded&quot;:0};fillColor=#050505;" vertex="1" parent="1">
          <mxGeometry x="2455" y="435" width="10" height="80" as="geometry" />
        </mxCell>
        <mxCell id="7lzFp0Yg2v_CefDAZ_hL-96" value="" style="ellipse;whiteSpace=wrap;html=1;aspect=fixed;fillColor=#000000;" vertex="1" parent="1">
          <mxGeometry x="2105" y="335" width="20" height="20" as="geometry" />
        </mxCell>
        <mxCell id="7lzFp0Yg2v_CefDAZ_hL-97" value="" style="ellipse;whiteSpace=wrap;html=1;aspect=fixed;fillColor=#000000;" vertex="1" parent="1">
          <mxGeometry x="2065" y="375" width="20" height="20" as="geometry" />
        </mxCell>
        <mxCell id="7lzFp0Yg2v_CefDAZ_hL-98" value="" style="ellipse;whiteSpace=wrap;html=1;aspect=fixed;fillColor=#000000;" vertex="1" parent="1">
          <mxGeometry x="2085" y="355" width="20" height="20" as="geometry" />
        </mxCell>
        <mxCell id="7lzFp0Yg2v_CefDAZ_hL-99" value="" style="ellipse;whiteSpace=wrap;html=1;aspect=fixed;fillColor=#000000;" vertex="1" parent="1">
          <mxGeometry x="2105" y="375" width="20" height="20" as="geometry" />
        </mxCell>
        <mxCell id="7lzFp0Yg2v_CefDAZ_hL-100" style="edgeStyle=orthogonalEdgeStyle;rounded=0;orthogonalLoop=1;jettySize=auto;html=1;curved=0;entryX=1;entryY=0.5;entryDx=0;entryDy=0;" edge="1" parent="1">
          <mxGeometry relative="1" as="geometry">
            <mxPoint x="2235" y="455" as="sourcePoint" />
            <mxPoint x="2135" y="375" as="targetPoint" />
            <Array as="points">
              <mxPoint x="2265" y="455" />
              <mxPoint x="2265" y="375" />
            </Array>
          </mxGeometry>
        </mxCell>
        <mxCell id="7lzFp0Yg2v_CefDAZ_hL-101" style="edgeStyle=orthogonalEdgeStyle;rounded=0;orthogonalLoop=1;jettySize=auto;html=1;curved=0;entryX=1;entryY=0.5;entryDx=0;entryDy=0;" edge="1" parent="1">
          <mxGeometry relative="1" as="geometry">
            <mxPoint x="2235" y="435" as="sourcePoint" />
            <mxPoint x="2135" y="355" as="targetPoint" />
            <Array as="points">
              <mxPoint x="2265" y="435" />
              <mxPoint x="2265" y="355" />
            </Array>
          </mxGeometry>
        </mxCell>
        <mxCell id="7lzFp0Yg2v_CefDAZ_hL-102" style="edgeStyle=orthogonalEdgeStyle;rounded=0;orthogonalLoop=1;jettySize=auto;html=1;curved=0;entryX=1;entryY=0.5;entryDx=0;entryDy=0;" edge="1" parent="1">
          <mxGeometry relative="1" as="geometry">
            <mxPoint x="2235" y="465" as="sourcePoint" />
            <mxPoint x="2135" y="385" as="targetPoint" />
            <Array as="points">
              <mxPoint x="2265" y="465" />
              <mxPoint x="2265" y="385" />
            </Array>
          </mxGeometry>
        </mxCell>
        <mxCell id="7lzFp0Yg2v_CefDAZ_hL-103" style="edgeStyle=orthogonalEdgeStyle;rounded=0;orthogonalLoop=1;jettySize=auto;html=1;curved=0;entryX=1;entryY=0.5;entryDx=0;entryDy=0;" edge="1" parent="1">
          <mxGeometry relative="1" as="geometry">
            <mxPoint x="2235" y="475" as="sourcePoint" />
            <mxPoint x="2135" y="395" as="targetPoint" />
            <Array as="points">
              <mxPoint x="2265" y="475" />
              <mxPoint x="2265" y="395" />
            </Array>
          </mxGeometry>
        </mxCell>
        <mxCell id="7lzFp0Yg2v_CefDAZ_hL-104" value="" style="edgeStyle=orthogonalEdgeStyle;rounded=0;orthogonalLoop=1;jettySize=auto;html=1;" edge="1" parent="1">
          <mxGeometry relative="1" as="geometry">
            <mxPoint x="2145" y="485" as="sourcePoint" />
            <mxPoint x="2225" y="485" as="targetPoint" />
          </mxGeometry>
        </mxCell>
        <mxCell id="7lzFp0Yg2v_CefDAZ_hL-105" value="" style="edgeStyle=orthogonalEdgeStyle;rounded=0;orthogonalLoop=1;jettySize=auto;html=1;" edge="1" parent="1">
          <mxGeometry relative="1" as="geometry">
            <mxPoint x="2145" y="495" as="sourcePoint" />
            <mxPoint x="2225" y="495" as="targetPoint" />
          </mxGeometry>
        </mxCell>
        <mxCell id="7lzFp0Yg2v_CefDAZ_hL-106" value="" style="edgeStyle=orthogonalEdgeStyle;rounded=0;orthogonalLoop=1;jettySize=auto;html=1;" edge="1" parent="1">
          <mxGeometry relative="1" as="geometry">
            <mxPoint x="2145" y="465" as="sourcePoint" />
            <mxPoint x="2225" y="465" as="targetPoint" />
          </mxGeometry>
        </mxCell>
        <mxCell id="7lzFp0Yg2v_CefDAZ_hL-107" value="" style="edgeStyle=orthogonalEdgeStyle;rounded=0;orthogonalLoop=1;jettySize=auto;html=1;" edge="1" parent="1">
          <mxGeometry relative="1" as="geometry">
            <mxPoint x="2145" y="455" as="sourcePoint" />
            <mxPoint x="2225" y="455" as="targetPoint" />
          </mxGeometry>
        </mxCell>
        <mxCell id="7lzFp0Yg2v_CefDAZ_hL-111" value="&lt;div&gt;Ingresa&lt;/div&gt;&lt;div&gt;nuevo pedido&lt;br&gt;&lt;/div&gt;" style="text;html=1;align=center;verticalAlign=middle;resizable=0;points=[];autosize=1;strokeColor=none;fillColor=none;" vertex="1" parent="1">
          <mxGeometry x="320" y="485" width="100" height="40" as="geometry" />
        </mxCell>
        <mxCell id="7lzFp0Yg2v_CefDAZ_hL-112" value="&lt;div&gt;Pedido en&lt;/div&gt;&lt;div&gt;espera&lt;br&gt;&lt;/div&gt;" style="text;html=1;align=center;verticalAlign=middle;resizable=0;points=[];autosize=1;strokeColor=none;fillColor=none;" vertex="1" parent="1">
          <mxGeometry x="455" y="490" width="80" height="40" as="geometry" />
        </mxCell>
        <mxCell id="7lzFp0Yg2v_CefDAZ_hL-113" value="&lt;div&gt;Derivando&lt;/div&gt;&lt;div&gt;pedido&lt;br&gt;&lt;/div&gt;" style="text;html=1;align=center;verticalAlign=middle;resizable=0;points=[];autosize=1;strokeColor=none;fillColor=none;" vertex="1" parent="1">
          <mxGeometry x="775" y="430" width="80" height="40" as="geometry" />
        </mxCell>
        <mxCell id="7lzFp0Yg2v_CefDAZ_hL-114" value="&lt;div&gt;Comienzo&lt;/div&gt;&lt;div&gt;de analisis&lt;/div&gt;&lt;div&gt;de pedido&lt;br&gt;&lt;/div&gt;" style="text;html=1;align=center;verticalAlign=middle;resizable=0;points=[];autosize=1;strokeColor=none;fillColor=none;" vertex="1" parent="1">
          <mxGeometry x="820" y="295" width="80" height="60" as="geometry" />
        </mxCell>
        <mxCell id="7lzFp0Yg2v_CefDAZ_hL-115" value="&lt;div&gt;Analizando en &lt;br&gt;&lt;/div&gt;&lt;div&gt;puesto A&lt;br&gt;&lt;/div&gt;" style="text;html=1;align=center;verticalAlign=middle;resizable=0;points=[];autosize=1;strokeColor=none;fillColor=none;" vertex="1" parent="1">
          <mxGeometry x="915" y="305" width="100" height="40" as="geometry" />
        </mxCell>
        <mxCell id="7lzFp0Yg2v_CefDAZ_hL-116" value="&lt;div&gt;Fin de&lt;/div&gt;&lt;div&gt;analisis&lt;br&gt;&lt;/div&gt;" style="text;html=1;align=center;verticalAlign=middle;resizable=0;points=[];autosize=1;strokeColor=none;fillColor=none;" vertex="1" parent="1">
          <mxGeometry x="1035" y="305" width="70" height="40" as="geometry" />
        </mxCell>
        <mxCell id="7lzFp0Yg2v_CefDAZ_hL-117" value="Empleado libre" style="text;html=1;align=center;verticalAlign=middle;resizable=0;points=[];autosize=1;strokeColor=none;fillColor=none;" vertex="1" parent="1">
          <mxGeometry x="910" y="50" width="110" height="30" as="geometry" />
        </mxCell>
        <mxCell id="7lzFp0Yg2v_CefDAZ_hL-118" value="&lt;div&gt;Esperando para&lt;/div&gt;&lt;div&gt;armado&lt;br&gt;&lt;/div&gt;" style="text;html=1;align=center;verticalAlign=middle;resizable=0;points=[];autosize=1;strokeColor=none;fillColor=none;" vertex="1" parent="1">
          <mxGeometry x="1140" y="305" width="110" height="40" as="geometry" />
        </mxCell>
        <mxCell id="7lzFp0Yg2v_CefDAZ_hL-119" value="&lt;div&gt;Inicio de&lt;/div&gt;&lt;div&gt;armado&lt;br&gt;&lt;/div&gt;" style="text;html=1;align=center;verticalAlign=middle;resizable=0;points=[];autosize=1;strokeColor=none;fillColor=none;" vertex="1" parent="1">
          <mxGeometry x="1275" y="305" width="70" height="40" as="geometry" />
        </mxCell>
        <mxCell id="7lzFp0Yg2v_CefDAZ_hL-120" value="&lt;div&gt;Armando en &lt;br&gt;&lt;/div&gt;&lt;div&gt;puesto A&lt;br&gt;&lt;/div&gt;" style="text;html=1;align=center;verticalAlign=middle;resizable=0;points=[];autosize=1;strokeColor=none;fillColor=none;" vertex="1" parent="1">
          <mxGeometry x="1390" y="305" width="90" height="40" as="geometry" />
        </mxCell>
        <mxCell id="7lzFp0Yg2v_CefDAZ_hL-121" value="Deposito de armado" style="text;html=1;align=center;verticalAlign=middle;resizable=0;points=[];autosize=1;strokeColor=none;fillColor=none;" vertex="1" parent="1">
          <mxGeometry x="1365" y="55" width="140" height="30" as="geometry" />
        </mxCell>
        <mxCell id="7lzFp0Yg2v_CefDAZ_hL-122" value="&lt;div&gt;Enviando&lt;/div&gt;&lt;div&gt;pedido&lt;/div&gt;&lt;div&gt;listo&lt;br&gt;&lt;/div&gt;" style="text;html=1;align=center;verticalAlign=middle;resizable=0;points=[];autosize=1;strokeColor=none;fillColor=none;" vertex="1" parent="1">
          <mxGeometry x="1525" y="295" width="70" height="60" as="geometry" />
        </mxCell>
        <mxCell id="7lzFp0Yg2v_CefDAZ_hL-123" value="&lt;div&gt;Enviando&lt;/div&gt;&lt;div&gt;pedido&lt;/div&gt;&lt;div&gt;listo&lt;br&gt;&lt;/div&gt;" style="text;html=1;align=center;verticalAlign=middle;resizable=0;points=[];autosize=1;strokeColor=none;fillColor=none;" vertex="1" parent="1">
          <mxGeometry x="1525" y="730" width="70" height="60" as="geometry" />
        </mxCell>
        <mxCell id="7lzFp0Yg2v_CefDAZ_hL-124" value="&lt;div&gt;Armando en &lt;br&gt;&lt;/div&gt;&lt;div&gt;puesto B&lt;br&gt;&lt;/div&gt;" style="text;html=1;align=center;verticalAlign=middle;resizable=0;points=[];autosize=1;strokeColor=none;fillColor=none;" vertex="1" parent="1">
          <mxGeometry x="1390" y="740" width="90" height="40" as="geometry" />
        </mxCell>
        <mxCell id="7lzFp0Yg2v_CefDAZ_hL-125" value="&lt;div&gt;Inicio de&lt;/div&gt;&lt;div&gt;armado&lt;br&gt;&lt;/div&gt;" style="text;html=1;align=center;verticalAlign=middle;resizable=0;points=[];autosize=1;strokeColor=none;fillColor=none;" vertex="1" parent="1">
          <mxGeometry x="1275" y="740" width="70" height="40" as="geometry" />
        </mxCell>
        <mxCell id="7lzFp0Yg2v_CefDAZ_hL-126" value="&lt;div&gt;Esperando para&lt;/div&gt;&lt;div&gt;armado&lt;br&gt;&lt;/div&gt;" style="text;html=1;align=center;verticalAlign=middle;resizable=0;points=[];autosize=1;strokeColor=none;fillColor=none;" vertex="1" parent="1">
          <mxGeometry x="1140" y="740" width="110" height="40" as="geometry" />
        </mxCell>
        <mxCell id="7lzFp0Yg2v_CefDAZ_hL-127" value="&lt;div&gt;Fin de&lt;/div&gt;&lt;div&gt;analisis&lt;br&gt;&lt;/div&gt;" style="text;html=1;align=center;verticalAlign=middle;resizable=0;points=[];autosize=1;strokeColor=none;fillColor=none;" vertex="1" parent="1">
          <mxGeometry x="1035" y="740" width="70" height="40" as="geometry" />
        </mxCell>
        <mxCell id="7lzFp0Yg2v_CefDAZ_hL-128" value="&lt;div&gt;Analizando en &lt;br&gt;&lt;/div&gt;&lt;div&gt;puesto B&lt;br&gt;&lt;/div&gt;" style="text;html=1;align=center;verticalAlign=middle;resizable=0;points=[];autosize=1;strokeColor=none;fillColor=none;" vertex="1" parent="1">
          <mxGeometry x="915" y="740" width="100" height="40" as="geometry" />
        </mxCell>
        <mxCell id="7lzFp0Yg2v_CefDAZ_hL-129" value="&lt;div&gt;Comienzo&lt;/div&gt;&lt;div&gt;de analisis&lt;/div&gt;&lt;div&gt;de pedido&lt;br&gt;&lt;/div&gt;" style="text;html=1;align=center;verticalAlign=middle;resizable=0;points=[];autosize=1;strokeColor=none;fillColor=none;" vertex="1" parent="1">
          <mxGeometry x="820" y="730" width="80" height="60" as="geometry" />
        </mxCell>
        <mxCell id="7lzFp0Yg2v_CefDAZ_hL-130" value="Empleado libre" style="text;html=1;align=center;verticalAlign=middle;resizable=0;points=[];autosize=1;strokeColor=none;fillColor=none;" vertex="1" parent="1">
          <mxGeometry x="910" y="485" width="110" height="30" as="geometry" />
        </mxCell>
        <mxCell id="7lzFp0Yg2v_CefDAZ_hL-131" value="Deposito de armado" style="text;html=1;align=center;verticalAlign=middle;resizable=0;points=[];autosize=1;strokeColor=none;fillColor=none;" vertex="1" parent="1">
          <mxGeometry x="1365" y="490" width="140" height="30" as="geometry" />
        </mxCell>
        <mxCell id="7lzFp0Yg2v_CefDAZ_hL-132" value="&lt;div&gt;Deposito&lt;/div&gt;&lt;div&gt;de pedidos&lt;/div&gt;&lt;div&gt;armados&lt;br&gt;&lt;/div&gt;" style="text;html=1;align=center;verticalAlign=middle;resizable=0;points=[];autosize=1;strokeColor=none;fillColor=none;" vertex="1" parent="1">
          <mxGeometry x="1695" y="445" width="90" height="60" as="geometry" />
        </mxCell>
        <mxCell id="7lzFp0Yg2v_CefDAZ_hL-133" value="&lt;div&gt;Pedido enviado&lt;/div&gt;&lt;div&gt;para embalar&lt;br&gt;&lt;/div&gt;" style="text;html=1;align=center;verticalAlign=middle;resizable=0;points=[];autosize=1;strokeColor=none;fillColor=none;" vertex="1" parent="1">
          <mxGeometry x="1915" y="515" width="110" height="40" as="geometry" />
        </mxCell>
        <mxCell id="7lzFp0Yg2v_CefDAZ_hL-134" value="Creando lote" style="text;html=1;align=center;verticalAlign=middle;resizable=0;points=[];autosize=1;strokeColor=none;fillColor=none;" vertex="1" parent="1">
          <mxGeometry x="2060" y="515" width="90" height="30" as="geometry" />
        </mxCell>
        <mxCell id="7lzFp0Yg2v_CefDAZ_hL-135" value="Enviando lote" style="text;html=1;align=center;verticalAlign=middle;resizable=0;points=[];autosize=1;strokeColor=none;fillColor=none;" vertex="1" parent="1">
          <mxGeometry x="2180" y="510" width="100" height="30" as="geometry" />
        </mxCell>
        <mxCell id="7lzFp0Yg2v_CefDAZ_hL-136" value="&lt;div&gt;Enviando lote al&lt;/div&gt;&lt;div&gt;camion de reparto&lt;br&gt;&lt;/div&gt;" style="text;html=1;align=center;verticalAlign=middle;resizable=0;points=[];autosize=1;strokeColor=none;fillColor=none;" vertex="1" parent="1">
          <mxGeometry x="2295" y="510" width="120" height="40" as="geometry" />
        </mxCell>
        <mxCell id="7lzFp0Yg2v_CefDAZ_hL-137" value="&lt;div&gt;Lote&lt;/div&gt;&lt;div&gt;despachado&lt;br&gt;&lt;/div&gt;" style="text;html=1;align=center;verticalAlign=middle;resizable=0;points=[];autosize=1;strokeColor=none;fillColor=none;" vertex="1" parent="1">
          <mxGeometry x="2415" y="515" width="90" height="40" as="geometry" />
        </mxCell>
      </root>
    </mxGraphModel>
  </diagram>
</mxfile>
